<svg width="24" height="24" viewBox="0 0 24 24" fill="none" xmlns="http://www.w3.org/2000/svg">
<circle cx="15" cy="12" r="8" fill="#F2B94A"/>
<path d="M10.5846 5.32781C11.3532 5.11418 12.1633 5 13 5C17.9706 5 22 9.02944 22 14C22 14.8367 21.8858 15.6468 21.6722 16.4154C20.2397 18.5757 17.7862 20 15 20C10.5817 20 7 16.4183 7 12C7 9.21379 8.42434 6.76025 10.5846 5.32781Z" fill="black" fill-opacity="0.12"/>
<circle cx="11" cy="12" r="10" fill="#FFEB3B"/>
<path fill-rule="evenodd" clip-rule="evenodd" d="M8.75 7.5H12.25C13.9065 7.5 15.25 8.843 15.25 10.5C15.25 12.157 13.9065 13.5 12.25 13.5H10.75V16.5H8.75V7.5ZM10.75 11.5H12.35C12.902 11.5 13.35 11.0525 13.35 10.5C13.35 9.9475 12.902 9.5 12.35 9.5H10.75V11.5Z" fill="#F2B94A"/>
<path fill-rule="evenodd" clip-rule="evenodd" d="M8.75 7.5H12.25C13.9065 7.5 15.25 8.843 15.25 10.5C15.25 12.157 13.9065 13.5 12.25 13.5H10.75V16.5H8.75V7.5ZM10.75 11.5H12.35C12.902 11.5 13.35 11.0525 13.35 10.5C13.35 9.9475 12.902 9.5 12.35 9.5H10.75V11.5Z" fill="#F2B94A"/>
</svg>
